<svg xmlns="http://www.w3.org/2000/svg" width="64" height="59" viewBox="0 0 64 59" fill="none">
<rect width="64" height="59" fill="url(#paint0_linear_474_808)"/>
<line x1="16" y1="14" x2="16" y2="43" stroke="#22FA5F" stroke-width="4"/>
<path d="M22.2929 28.2929C21.9024 28.6834 21.9024 29.3166 22.2929 29.7071L28.6569 36.0711C29.0474 36.4616 29.6805 36.4616 30.0711 36.0711C30.4616 35.6805 30.4616 35.0474 30.0711 34.6569L24.4142 29L30.0711 23.3431C30.4616 22.9526 30.4616 22.3195 30.0711 21.9289C29.6805 21.5384 29.0474 21.5384 28.6569 21.9289L22.2929 28.2929ZM46 28L23 28V30L46 30V28Z" fill="#22FA5F"/>
<defs>
<linearGradient id="paint0_linear_474_808" x1="3.89853e-07" y1="30" x2="66.5" y2="30" gradientUnits="userSpaceOnUse">
<stop stop-color="#78FE9E" stop-opacity="0.18"/>
<stop offset="1" stop-color="#6BFF95" stop-opacity="0"/>
</linearGradient>
</defs>
</svg>