<svg xmlns="http://www.w3.org/2000/svg" width="63" height="59" viewBox="0 0 63 59" fill="none">
  <rect width="63" height="58.0781" transform="matrix(-1 0 0 1 63 0)" fill="url(#paint0_linear_474_812)"/>
  <line y1="-2" x2="28.5469" y2="-2" transform="matrix(0 1 1 0 49.2188 13.7812)" stroke="#22FA5F" stroke-width="4"/>
  <path d="M41.0665 27.8398C41.457 28.2303 41.457 28.8635 41.0665 29.254L34.7025 35.6179C34.312 36.0085 33.6788 36.0085 33.2883 35.6179C32.8978 35.2274 32.8978 34.5943 33.2883 34.2037L38.9452 28.5469L33.2883 22.89C32.8978 22.4995 32.8978 21.8663 33.2883 21.4758C33.6788 21.0853 34.312 21.0853 34.7025 21.4758L41.0665 27.8398ZM17.7188 27.5469L40.3594 27.5469V29.5469L17.7188 29.5469V27.5469Z" fill="#22FA5F"/>
  <defs>
    <linearGradient id="paint0_linear_474_812" x1="3.83762e-07" y1="29.5312" x2="65.4609" y2="29.5313" gradientUnits="userSpaceOnUse">
      <stop stop-color="#78FE9E" stop-opacity="0.18"/>
      <stop offset="1" stop-color="#6BFF95" stop-opacity="0"/>
    </linearGradient>
  </defs>
</svg>