<svg xmlns="http://www.w3.org/2000/svg" width="36" height="36" viewBox="0 0 36 36" fill="none">
<path d="M4.48558 16.5049C2.45796 16.5049 1 14.9738 1 12.91C1 10.8462 2.45796 9.29332 4.48558 9.29332" stroke="#B1B5B2" stroke-width="0.75"/>
<path d="M13.2594 8.33175C15.3027 7.97117 16.6248 6.78377 16.6248 4.72598C16.6248 2.66819 14.9566 1.00002 12.8988 1.00002C10.841 1.00002 9.17285 2.66819 9.17285 4.72598" stroke="#B1B5B2" stroke-width="0.75"/>
<path d="M9.29297 21.1923C9.29297 23.2501 10.8409 24.7981 12.8987 24.7981C14.9565 24.7981 16.6247 23.1299 16.6247 21.0722C16.6247 19.0144 14.8218 18.0673 13.0189 17.4664" stroke="#B1B5B2" stroke-width="0.75"/>
<path d="M4.36523 16.5048C8.48611 16.5048 9.29312 20.375 9.29312 21.1923M13.0191 17.4664C11.7828 17.0577 8.0912 17.7068 8.33158 13.1395" stroke="#B1B5B2" stroke-width="0.75"/>
<path d="M9.17276 4.72595C9.08354 8.98417 5.23391 9.31145 4.36505 9.29324M8.33141 13.1394C8.38786 11.8076 8.46275 9.08324 13.2593 8.33171" stroke="#B1B5B2" stroke-width="0.75"/>
<path d="M32.1395 26.5045C34.1671 26.5045 35.625 24.9735 35.625 22.9097C35.625 20.846 34.1671 19.2931 32.1395 19.2931" stroke="#B1B5B2" stroke-width="0.75"/>
<path d="M23.3657 18.3316C21.3225 17.971 20.0004 16.7836 20.0004 14.7259C20.0004 12.6681 21.6685 11 23.7263 11C25.784 11 27.4521 12.6681 27.4521 14.7259" stroke="#B1B5B2" stroke-width="0.75"/>
<path d="M27.332 31.1919C27.332 33.2496 25.7841 34.7976 23.7263 34.7976C21.6686 34.7976 20.0005 33.1294 20.0005 31.0717C20.0005 29.0139 21.8033 28.067 23.6062 27.466" stroke="#B1B5B2" stroke-width="0.75"/>
<path d="M32.2598 26.5044C28.139 26.5044 27.332 30.3745 27.332 31.1918M23.6061 27.466C24.8424 27.0573 28.5339 27.7063 28.2935 23.1391" stroke="#B1B5B2" stroke-width="0.75"/>
<path d="M27.4521 14.7259C27.5414 18.984 31.3909 19.3113 32.2597 19.2931M28.2935 23.1391C28.237 21.8073 28.1621 19.0831 23.3657 18.3316" stroke="#B1B5B2" stroke-width="0.75"/>
</svg>