<svg xmlns="http://www.w3.org/2000/svg" width="110" height="61" viewBox="0 0 110 61" fill="none">
  <g clip-path="url(#clip0_474_798)">
    <path opacity="0.66" d="M52.1836 46.6471C65.0304 46.6471 75.4448 36.2048 75.4448 23.3235C75.4448 10.4423 65.0304 0 52.1836 0C39.3369 0 28.9225 10.4423 28.9225 23.3235C28.9225 36.2048 39.3369 46.6471 52.1836 46.6471Z" fill="#22FA5F"/>
    <path d="M6.74379 39.9988L7.16603 40.5013C8.09942 41.6101 9.63285 41.9652 10.9385 41.3807C19.5279 37.5572 52.6131 25.3821 91.571 44.1664C93.1655 44.9366 94.6434 45.9361 95.949 47.1487C98.5436 49.5575 101.794 54.3916 103.316 56.5819C104.772 58.6739 111.117 52.3815 108.277 49.5193C108.277 49.5193 101.694 46.8811 98.588 41.7521C98.088 40.9274 97.9769 39.9169 98.2714 38.9938C100.01 33.5261 103.544 12.3494 55.0077 10.0061C55.0077 10.0061 7.67162 8.95194 5.03813 34.4929C4.83257 36.4812 5.46594 38.4694 6.74934 39.9933L6.74379 39.9988Z" stroke="#22FA5F" stroke-width="3" stroke-miterlimit="10"/>
  </g>
  <defs>
    <clipPath id="clip0_474_798">
      <rect width="110" height="61" fill="white"/>
    </clipPath>
  </defs>
</svg>